<svg version="1.1" id="Layer_1" xmlns="http://www.w3.org/2000/svg" xmlns:xlink="http://www.w3.org/1999/xlink" x="0px" y="0px"
	 width="100%" viewBox="0 0 256 256" enable-background="new 0 0 256 256" xml:space="preserve">
<path fill="#000000" opacity="1.000000" stroke="none" 
	d="
M149.000000,257.000000 
	C99.333336,257.000000 50.166672,257.000000 1.000007,257.000000 
	C1.000004,171.666672 1.000004,86.333351 1.000002,1.000018 
	C86.333321,1.000012 171.666641,1.000012 257.000000,1.000006 
	C257.000000,86.333313 257.000000,171.666626 257.000000,256.999969 
	C221.166672,257.000000 185.333328,257.000000 149.000000,257.000000 
M126.889336,18.197853 
	C126.382545,17.878584 125.872124,17.274591 125.369476,17.280989 
	C103.131668,17.564070 80.826492,16.933182 58.675575,18.490805 
	C34.222645,20.210300 18.117752,41.078304 17.347439,64.809937 
	C16.780611,82.272682 17.215660,99.767952 17.204981,117.248734 
	C17.203079,120.363106 17.204710,123.477486 17.204710,126.727867 
	C18.565111,126.853386 19.366880,126.991806 20.168695,126.992073 
	C54.631107,127.003403 89.093536,127.012527 123.555878,126.960831 
	C124.752083,126.959038 125.947357,126.335197 127.872787,126.000793 
	C128.845779,126.001358 129.818756,126.001923 131.300064,126.733986 
	C132.122482,126.823639 132.944855,126.991371 133.767303,126.991707 
	C168.247757,127.005661 202.728195,127.008095 237.208633,126.989799 
	C238.306992,126.989220 239.405197,126.756607 240.795364,126.599091 
	C240.795364,112.825111 240.920135,99.356018 240.751846,85.890572 
	C240.638214,76.798668 240.661560,67.650986 239.662704,58.634708 
	C237.041382,34.972836 218.274353,18.393084 193.685562,17.385124 
	C174.062927,16.580740 154.381302,17.176411 134.726547,17.281208 
	C133.410904,17.288223 132.101166,18.399742 130.060486,18.998095 
	C129.089523,18.998272 128.118561,18.998449 126.889336,18.197853 
M52.750050,238.760162 
	C56.599945,239.433212 60.444332,240.649017 64.300659,240.688171 
	C84.125450,240.889435 103.953308,240.793365 123.780067,240.777573 
	C124.729324,240.776825 125.678398,240.552902 126.716339,240.421692 
	C126.716339,203.915329 126.716339,167.676483 126.716339,131.422607 
	C90.113503,131.422607 53.768635,131.422607 17.212557,131.422607 
	C17.212557,152.993515 16.606916,174.168106 17.537926,195.274902 
	C17.868029,202.758667 20.977177,210.580978 24.522383,217.356812 
	C30.256941,228.317047 39.942039,235.238358 52.750050,238.760162 
M130.960922,182.500000 
	C130.960922,201.775681 130.960922,221.051361 130.960922,240.797440 
	C132.582870,240.797440 133.705353,240.812775 134.827316,240.795181 
	C156.240555,240.459488 177.711792,240.985336 199.051666,239.553711 
	C223.597473,237.906998 239.971039,216.890427 240.691040,192.827942 
	C241.059586,180.510864 240.787064,168.174484 240.797348,155.846832 
	C240.804138,147.726669 240.798630,139.606491 240.798630,131.293610 
	C203.963974,131.293610 167.600204,131.293610 130.960922,131.293610 
	C130.960922,148.229568 130.960922,164.864792 130.960922,182.500000 
z"/>
<path fill="#FD9400" opacity="1.000000" stroke="none" 
	d="
M130.788681,18.997551 
	C132.101166,18.399742 133.410904,17.288223 134.726547,17.281208 
	C154.381302,17.176411 174.062927,16.580740 193.685562,17.385124 
	C218.274353,18.393084 237.041382,34.972836 239.662704,58.634708 
	C240.661560,67.650986 240.638214,76.798668 240.751846,85.890572 
	C240.920135,99.356018 240.795364,112.825111 240.795364,126.599091 
	C239.405197,126.756607 238.306992,126.989220 237.208633,126.989799 
	C202.728195,127.008095 168.247757,127.005661 133.767303,126.991707 
	C132.944855,126.991371 132.122482,126.823639 131.121735,125.904831 
	C130.891830,89.716301 130.840256,54.356926 130.788681,18.997551 
M180.501511,75.042297 
	C189.264038,75.042297 198.026581,75.042297 206.789108,75.042297 
	C207.071243,74.556847 207.353378,74.071396 207.635513,73.585945 
	C206.614670,72.735313 205.603333,71.157921 204.571518,71.144402 
	C191.621796,70.974739 178.668213,70.967422 165.718887,71.150299 
	C164.676605,71.165031 163.658432,72.885925 162.629059,73.813972 
	C162.960999,74.223480 163.292938,74.632980 163.624878,75.042488 
	C168.917343,75.042488 174.209793,75.042488 180.501511,75.042297 
z"/>
<path fill="#FD9400" opacity="1.000000" stroke="none" 
	d="
M127.143066,126.001289 
	C125.947357,126.335197 124.752083,126.959038 123.555878,126.960831 
	C89.093536,127.012527 54.631107,127.003403 20.168695,126.992073 
	C19.366880,126.991806 18.565111,126.853386 17.204710,126.727867 
	C17.204710,123.477486 17.203079,120.363106 17.204981,117.248734 
	C17.215660,99.767952 16.780611,82.272682 17.347439,64.809937 
	C18.117752,41.078304 34.222645,20.210300 58.675575,18.490805 
	C80.826492,16.933182 103.131668,17.564070 125.369476,17.280989 
	C125.872124,17.274591 126.382545,17.878584 126.942390,19.061569 
	C127.044655,55.283955 127.093864,90.642624 127.143066,126.001289 
M63.443733,75.052094 
	C65.881554,75.052094 68.319374,75.052094 71.126183,75.052094 
	C71.126183,81.122643 70.983795,86.592842 71.237923,92.044563 
	C71.293396,93.234779 72.764999,94.358978 73.584404,95.513580 
	C74.122154,95.252579 74.659912,94.991577 75.197662,94.730576 
	C75.197662,88.321533 75.197662,81.912491 75.197662,75.006821 
	C82.131607,75.006821 88.543892,75.006821 94.956177,75.006821 
	C95.125320,74.046051 95.294456,73.085274 95.463600,72.124504 
	C89.231277,69.394417 81.751831,72.313850 75.015900,70.350510 
	C75.015900,63.903271 75.015900,57.628635 75.015900,51.354004 
	C73.877678,51.133560 72.739456,50.913113 71.601234,50.692669 
	C70.393250,57.208241 71.743393,64.288185 70.807365,71.020515 
	C64.888176,71.020515 59.405613,70.878227 53.942196,71.138275 
	C52.823757,71.191498 51.777084,72.752602 50.697327,73.618645 
	C50.990479,74.096443 51.283634,74.574242 51.576786,75.052040 
	C55.208660,75.052040 58.840538,75.052040 63.443733,75.052094 
z"/>
<path fill="#FD9401" opacity="1.000000" stroke="none" 
	d="
M52.332687,238.742691 
	C39.942039,235.238358 30.256941,228.317047 24.522383,217.356812 
	C20.977177,210.580978 17.868029,202.758667 17.537926,195.274902 
	C16.606916,174.168106 17.212557,152.993515 17.212557,131.422607 
	C53.768635,131.422607 90.113503,131.422607 126.716339,131.422607 
	C126.716339,167.676483 126.716339,203.915329 126.716339,240.421692 
	C125.678398,240.552902 124.729324,240.776825 123.780067,240.777573 
	C103.953308,240.793365 84.125450,240.889435 64.300659,240.688171 
	C60.444332,240.649017 56.599945,239.433212 52.332687,238.742691 
M64.283066,196.763596 
	C67.004608,193.645401 69.726151,190.527206 73.047546,186.721725 
	C78.268723,192.558884 82.575668,197.373962 86.671837,201.953400 
	C90.159790,200.285706 90.251442,198.833130 88.008400,196.793549 
	C83.978622,193.129349 80.114418,189.283081 75.503525,184.863495 
	C80.948746,180.010834 85.753212,175.729187 90.736374,171.288300 
	C89.252640,169.660446 88.495209,168.829437 87.217918,167.428085 
	C82.605652,172.535004 78.274933,177.330185 72.686462,183.518005 
	C67.952057,177.733322 63.775517,172.630249 59.459965,167.357346 
	C58.012516,168.948471 56.931374,169.992447 57.003086,170.078766 
	C61.230789,175.168213 65.553680,180.178574 70.166290,185.544159 
	C66.147408,189.429382 62.248058,193.281265 58.252865,197.031036 
	C55.802582,199.330811 56.853340,200.488358 59.943993,201.831329 
	C61.220081,200.313324 62.502884,198.787323 64.283066,196.763596 
z"/>
<path fill="#C4C5C9" opacity="1.000000" stroke="none" 
	d="
M130.960922,182.000000 
	C130.960922,164.864792 130.960922,148.229568 130.960922,131.293610 
	C167.600204,131.293610 203.963974,131.293610 240.798630,131.293610 
	C240.798630,139.606491 240.804138,147.726669 240.797348,155.846832 
	C240.787064,168.174484 241.059586,180.510864 240.691040,192.827942 
	C239.971039,216.890427 223.597473,237.906998 199.051666,239.553711 
	C177.711792,240.985336 156.240555,240.459488 134.827316,240.795181 
	C133.705353,240.812775 132.582870,240.797440 130.960922,240.797440 
	C130.960922,221.051361 130.960922,201.775681 130.960922,182.000000 
M201.192657,170.237885 
	C188.604462,170.237885 176.016281,170.237885 163.428085,170.237885 
	C163.115524,170.692413 162.802963,171.146942 162.490402,171.601486 
	C163.509003,172.601181 164.515533,174.456619 165.548050,174.471191 
	C179.281021,174.664917 193.017609,174.600586 206.722382,174.600586 
	C208.395737,169.026932 204.525314,170.493195 201.192657,170.237885 
M172.566010,195.281342 
	C170.409531,195.282883 168.248718,195.371887 166.097595,195.265228 
	C162.964050,195.109818 162.366180,196.513077 163.451096,199.282288 
	C177.902786,199.282288 192.301956,199.282288 206.664291,199.282288 
	C208.133011,195.641922 206.224915,195.232910 203.405151,195.254089 
	C193.452759,195.328857 183.499451,195.282028 172.566010,195.281342 
z"/>
<path fill="#020100" opacity="1.000000" stroke="none" 
	d="
M127.507927,126.001038 
	C127.093864,90.642624 127.044655,55.283955 127.071518,19.461956 
	C128.118561,18.998449 129.089523,18.998272 130.424591,18.997822 
	C130.840256,54.356926 130.891830,89.716301 130.867584,125.539078 
	C129.818756,126.001923 128.845779,126.001358 127.507927,126.001038 
z"/>
<path fill="#FFFDFA" opacity="1.000000" stroke="none" 
	d="
M180.001892,75.042389 
	C174.209793,75.042488 168.917343,75.042488 163.624878,75.042488 
	C163.292938,74.632980 162.960999,74.223480 162.629059,73.813972 
	C163.658432,72.885925 164.676605,71.165031 165.718887,71.150299 
	C178.668213,70.967422 191.621796,70.974739 204.571518,71.144402 
	C205.603333,71.157921 206.614670,72.735313 207.635513,73.585945 
	C207.353378,74.071396 207.071243,74.556847 206.789108,75.042297 
	C198.026581,75.042297 189.264038,75.042297 180.001892,75.042389 
z"/>
<path fill="#FFFBF5" opacity="1.000000" stroke="none" 
	d="
M62.958073,75.052063 
	C58.840538,75.052040 55.208660,75.052040 51.576786,75.052040 
	C51.283634,74.574242 50.990479,74.096443 50.697327,73.618645 
	C51.777084,72.752602 52.823757,71.191498 53.942196,71.138275 
	C59.405613,70.878227 64.888176,71.020515 70.807365,71.020515 
	C71.743393,64.288185 70.393250,57.208241 71.601234,50.692669 
	C72.739456,50.913113 73.877678,51.133560 75.015900,51.354004 
	C75.015900,57.628635 75.015900,63.903271 75.015900,70.350510 
	C81.751831,72.313850 89.231277,69.394417 95.463600,72.124504 
	C95.294456,73.085274 95.125320,74.046051 94.956177,75.006821 
	C88.543892,75.006821 82.131607,75.006821 75.197662,75.006821 
	C75.197662,81.912491 75.197662,88.321533 75.197662,94.730576 
	C74.659912,94.991577 74.122154,95.252579 73.584404,95.513580 
	C72.764999,94.358978 71.293396,93.234779 71.237923,92.044563 
	C70.983795,86.592842 71.126183,81.122643 71.126183,75.052094 
	C68.319374,75.052094 65.881554,75.052094 62.958073,75.052063 
z"/>
<path fill="#FFF9F0" opacity="1.000000" stroke="none" 
	d="
M64.034378,197.012466 
	C62.502884,198.787323 61.220081,200.313324 59.943993,201.831329 
	C56.853340,200.488358 55.802582,199.330811 58.252865,197.031036 
	C62.248058,193.281265 66.147408,189.429382 70.166290,185.544159 
	C65.553680,180.178574 61.230789,175.168213 57.003086,170.078766 
	C56.931374,169.992447 58.012516,168.948471 59.459965,167.357346 
	C63.775517,172.630249 67.952057,177.733322 72.686462,183.518005 
	C78.274933,177.330185 82.605652,172.535004 87.217918,167.428085 
	C88.495209,168.829437 89.252640,169.660446 90.736374,171.288300 
	C85.753212,175.729187 80.948746,180.010834 75.503525,184.863495 
	C80.114418,189.283081 83.978622,193.129349 88.008400,196.793549 
	C90.251442,198.833130 90.159790,200.285706 86.671837,201.953400 
	C82.575668,197.373962 78.268723,192.558884 73.047546,186.721725 
	C69.726151,190.527206 67.004608,193.645401 64.034378,197.012466 
z"/>
<path fill="#272828" opacity="1.000000" stroke="none" 
	d="
M201.645889,170.237900 
	C204.525314,170.493195 208.395737,169.026932 206.722382,174.600586 
	C193.017609,174.600586 179.281021,174.664917 165.548050,174.471191 
	C164.515533,174.456619 163.509003,172.601181 162.490402,171.601486 
	C162.802963,171.146942 163.115524,170.692413 163.428085,170.237885 
	C176.016281,170.237885 188.604462,170.237885 201.645889,170.237900 
z"/>
<path fill="#151516" opacity="1.000000" stroke="none" 
	d="
M173.056244,195.281326 
	C183.499451,195.282028 193.452759,195.328857 203.405151,195.254089 
	C206.224915,195.232910 208.133011,195.641922 206.664291,199.282288 
	C192.301956,199.282288 177.902786,199.282288 163.451096,199.282288 
	C162.366180,196.513077 162.964050,195.109818 166.097595,195.265228 
	C168.248718,195.371887 170.409531,195.282883 173.056244,195.281326 
z"/>
</svg>